HIERARCHY
ROOT Hips
{
	OFFSET	0.00	0.00	0.00
	CHANNELS 6 Xposition Yposition Zposition Zrotation Xrotation Yrotation
	JOINT LeftUpLeg
	{
		OFFSET	 0.126116	-0.014019	-0.065224
		CHANNELS 3 Zrotation Xrotation Yrotation
		JOINT LeftLeg
		{
			OFFSET	 0.000000	 0.000000	 0.569914
			CHANNELS 3 Zrotation Xrotation Yrotation
			JOINT LeftFoot
			{
				OFFSET	 0.000000	 0.000000	 0.544423
				CHANNELS 3 Zrotation Xrotation Yrotation
				JOINT LeftToeBase
				{
					OFFSET	 0.000000	 0.000000	 0.207117
					CHANNELS 3 Zrotation Xrotation Yrotation
					End Site
					{
						OFFSET	 0.000000	 0.000000	 0.207117
					}
				}
			}
		}
	}
	JOINT RightUpLeg
	{
		OFFSET	-0.124023	-0.008373	-0.065224
		CHANNELS 3 Zrotation Xrotation Yrotation
		JOINT RightLeg
		{
			OFFSET	 0.000000	 0.000000	 0.570047
			CHANNELS 3 Zrotation Xrotation Yrotation
			JOINT RightFoot
			{
				OFFSET	 0.000000	 0.000000	 0.544354
				CHANNELS 3 Zrotation Xrotation Yrotation
				JOINT RightToeBase
				{
					OFFSET	 0.000000	 0.000000	 0.207540
					CHANNELS 3 Zrotation Xrotation Yrotation
					End Site
					{
						OFFSET	 0.000000	 0.000000	 0.207540
					}
				}
			}
		}
	}
	JOINT Spine
	{
		OFFSET	 0.000184	-0.007763	 0.117403
		CHANNELS 3 Zrotation Xrotation Yrotation
		JOINT Spine1
		{
			OFFSET	 0.000000	 0.000000	 0.137269
			CHANNELS 3 Zrotation Xrotation Yrotation
			JOINT Spine2
			{
				OFFSET	 0.000000	 0.000000	 0.156879
				CHANNELS 3 Zrotation Xrotation Yrotation
				JOINT LeftShoulder
				{
					OFFSET	 0.080501	-0.002496	 0.160144
					CHANNELS 3 Zrotation Xrotation Yrotation
					JOINT LeftArm
					{
						OFFSET	 0.000000	 0.000000	 0.164363
						CHANNELS 3 Zrotation Xrotation Yrotation
						JOINT LeftForeArm
						{
							OFFSET	 0.000000	 0.000000	 0.364576
							CHANNELS 3 Zrotation Xrotation Yrotation
							JOINT LeftHand
							{
								OFFSET	 0.000000	 0.000000	 0.360812
								CHANNELS 3 Zrotation Xrotation Yrotation
								JOINT LeftHandIndex1
								{
									OFFSET	 0.000000	 0.000000	 0.086006
									CHANNELS 3 Zrotation Xrotation Yrotation
									JOINT LeftHandIndex2
									{
										OFFSET	 0.000000	 0.000000	 0.047236
										CHANNELS 3 Zrotation Xrotation Yrotation
										JOINT LeftHandIndex3
										{
											OFFSET	-0.004284	-0.000551	 0.038166
											CHANNELS 3 Zrotation Xrotation Yrotation
											End Site
											{
												OFFSET	-0.004284	-0.000551	 0.038166
											}
										}
									}
								}
							}
						}
					}
				}
				JOINT Neck
				{
					OFFSET	 0.000000	 0.000000	 0.176489
					CHANNELS 3 Zrotation Xrotation Yrotation
					JOINT Head
					{
						OFFSET	 0.000000	-0.001747	 0.077940
						CHANNELS 3 Zrotation Xrotation Yrotation
						End Site
						{
							OFFSET	 0.000000	-0.001747	 0.077940
						}
					}
				}
				JOINT RightShoulder
				{
					OFFSET	-0.080363	 0.000306	 0.159706
					CHANNELS 3 Zrotation Xrotation Yrotation
					JOINT RightArm
					{
						OFFSET	 0.000000	 0.000000	 0.164196
						CHANNELS 3 Zrotation Xrotation Yrotation
						JOINT RightForeArm
						{
							OFFSET	 0.000000	 0.000000	 0.365611
							CHANNELS 3 Zrotation Xrotation Yrotation
							JOINT RightHand
							{
								OFFSET	 0.000000	 0.000000	 0.360648
								CHANNELS 3 Zrotation Xrotation Yrotation
								JOINT RightHandIndex1
								{
									OFFSET	 0.000000	 0.000000	 0.069977
									CHANNELS 3 Zrotation Xrotation Yrotation
									JOINT RightHandIndex2
									{
										OFFSET	 0.000000	 0.000000	 0.052305
										CHANNELS 3 Zrotation Xrotation Yrotation
										JOINT RightHandIndex3
										{
											OFFSET	 0.009002	-0.000782	 0.042196
											CHANNELS 3 Zrotation Xrotation Yrotation
											End Site
											{
												OFFSET	 0.009002	-0.000782	 0.042196
											}
										}
									}
								}
							}
						}
					}
				}
			}
		}
	}
}
MOTION
Frames:    8
Frame Time: 0.03333334
-0.036692	 0.284131	 0.946810	 2.647646	 34.111530	-7.704678	 144.393800	-87.746490	-36.702480	 14.410180	-81.439890	 14.668710	-14.608420	 86.145270	 16.608450	-2.385832	 28.452790	-0.000001	 112.754000	-77.273860	-72.416920	-40.038430	-84.286940	-34.758400	 68.697560	 82.513600	-58.307420	 2.384659	 28.388700	-0.000001	 0.088798	 15.583260	 0.724020	-2.205239	 22.882880	 1.914648	-3.721034	-0.852243	 3.390160	-99.123310	 68.196810	 156.918800	 7.126217	-6.006093	-41.840910	-6.836561	 7.748480	-23.346670	-23.172970	-17.591150	-17.830510	-2.027600	 6.559038	 9.033609	-5.188889	 0.308190	 3.541030	-5.234859	 0.342567	 0.430617	 0.261298	 17.088680	-5.770093	-2.499485	-25.954000	-2.009060	 97.411090	 64.635290	-159.240000	-4.599199	 3.994629	 52.631610	-6.676936	 0.500118	 27.160170	 7.498438	-16.404940	 13.656930	 1.803333	 3.979147	-15.098590	 4.898592	 3.004813	-9.310344	 5.224449	 0.395017	 2.014677
-0.036520	 0.282716	 0.951476	 2.495883	 33.638750	-7.403240	 130.261200	-88.601280	-50.829540	 13.216890	-80.970930	 13.470690	-15.697760	 86.077090	 17.733250	-2.385832	 28.452790	-0.000001	 108.813500	-77.836010	-76.389690	-37.473100	-83.799700	-32.175130	 68.134590	 82.558170	-57.666490	 2.384659	 28.388700	-0.000001	 0.191936	 15.612110	 0.649603	-2.062592	 23.283770	 1.727575	-3.731609	-1.465881	 3.228003	-98.949980	 68.298110	 157.299300	 6.957131	-5.119668	-42.156620	-6.622695	 7.832890	-23.850030	-23.488110	-17.772320	-18.112970	-2.027600	 6.559038	 9.033609	-5.188889	 0.308190	 3.541030	-5.234859	 0.342567	 0.430617	-0.042361	 15.119360	-5.050438	-2.688040	-23.995800	-2.299765	 97.302520	 64.514550	-159.626000	-4.868434	 3.944538	 52.810990	-6.406211	 0.646949	 27.447060	 7.547929	-16.511470	 14.286760	 1.803333	 3.979147	-15.098590	 4.898592	 3.004813	-9.310344	 5.224449	 0.395017	 2.014677
-0.036323	 0.281229	 0.956903	 2.389569	 33.127100	-7.126183	 80.248390	-89.193510	-100.765400	 12.199310	-80.373830	 12.443790	-16.555500	 85.919360	 18.553140	-2.385832	 28.452790	-0.000001	 103.956800	-78.373100	-81.221400	-34.920950	-83.219040	-29.601620	 67.082470	 82.595300	-56.554180	 2.384659	 28.388700	-0.000001	 0.293349	 15.657950	 0.588061	-1.881232	 23.670180	 1.502611	-3.772107	-2.105770	 3.060240	-98.687390	 68.566460	 157.710600	 6.839094	-4.016043	-42.617230	-6.379821	 7.897336	-24.347430	-23.834070	-18.013710	-18.498490	-2.027600	 6.559038	 9.033609	-5.188889	 0.308190	 3.541030	-5.234859	 0.342567	 0.430617	-0.316281	 12.824940	-4.491248	-2.808490	-21.716980	-2.446288	 97.167270	 64.296650	-160.167800	-5.193948	 3.740446	 53.053560	-6.169199	 0.782448	 27.821500	 7.430263	-16.484210	 14.931280	 1.803333	 3.979147	-15.098590	 4.898592	 3.004813	-9.310344	 5.224449	 0.395017	 2.014677
-0.035952	 0.279752	 0.962834	 2.289238	 32.587740	-6.858085	 23.327360	-88.634850	-157.592300	 11.223990	-79.698360	 11.457890	-17.193970	 85.738000	 19.156760	-2.385832	 28.452790	-0.000001	 98.235470	-78.816960	-86.901250	-32.527320	-82.563620	-27.183890	 65.902860	 82.626240	-55.303190	 2.384659	 28.388700	-0.000001	 0.388280	 15.690510	 0.526521	-1.692516	 23.974350	 1.284238	-3.820450	-2.703504	 2.893594	-98.430150	 68.832600	 158.117700	 6.822708	-2.833486	-43.013300	-6.211612	 7.962150	-24.855860	-24.102610	-18.225690	-18.851670	-2.027600	 6.559038	 9.033609	-5.188889	 0.308190	 3.541030	-5.234859	 0.342567	 0.430617	-0.562422	 10.558650	-3.956225	-2.910268	-19.470730	-2.577171	 97.031000	 64.081280	-160.702000	-5.567919	 3.566303	 53.179760	-5.940231	 0.921773	 28.300500	 7.327270	-16.441890	 15.561880	 1.803333	 3.979147	-15.098590	 4.898592	 3.004813	-9.310344	 5.224449	 0.395017	 2.014677
-0.035452	 0.278335	 0.969186	 2.140634	 31.937020	-6.521370	 5.943713	-87.471050	-174.914400	 10.349800	-78.982700	 10.572420	-17.766420	 85.578410	 19.670580	-2.385832	 28.452790	-0.000001	 91.238660	-79.185200	-93.881810	-30.524140	-81.830430	-25.152290	 64.995790	 82.653960	-54.322820	 2.384659	 28.388700	-0.000001	 0.428932	 15.750300	 0.465194	-1.539808	 24.286940	 1.096870	-3.867077	-3.447716	 2.687908	-97.977130	 69.471470	 158.580500	 7.018735	-1.232441	-43.595950	-5.866452	 7.962881	-25.239200	-24.576950	-18.546410	-19.557840	-2.027600	 6.559038	 9.033609	-5.188889	 0.308190	 3.541030	-5.234859	 0.342567	 0.430617	-0.770303	 7.643048	-3.333925	-3.056717	-16.630600	-2.811859	 96.852400	 64.193020	-161.056800	-6.060615	 4.020415	 53.181930	-6.011648	 0.902663	 28.821990	 7.141123	-16.333200	 15.994090	 1.803333	 3.979147	-15.098590	 4.898592	 3.004813	-9.310344	 5.224449	 0.395017	 2.014677
-0.034693	 0.277001	 0.976306	 1.997122	 31.250080	-6.190755	 0.079424	-86.115520	 179.301300	 9.491975	-78.145170	 9.701240	-17.989620	 85.375810	 19.833640	-2.385833	 28.452760	 0.000004	 83.221800	-79.350490	-101.862300	-28.573770	-80.984060	-23.168740	 63.882510	 82.667250	-53.123680	 2.384659	 28.388700	-0.000001	 0.453010	 15.781250	 0.404860	-1.391590	 24.517370	 0.921845	-3.921229	-4.152023	 2.481009	-97.522770	 70.119550	 159.037100	 7.380170	 0.485441	-44.111580	-5.596134	 7.963098	-25.630060	-24.973330	-18.839610	-20.238650	-2.027600	 6.559038	 9.033609	-5.188889	 0.308190	 3.541030	-5.234859	 0.342567	 0.430617	-0.942038	 4.743985	-2.730701	-3.180350	-13.812510	-3.030769	 96.676250	 64.317370	-161.402400	-6.640236	 4.532770	 53.027640	-6.097607	 0.878138	 29.464250	 6.956657	-16.220190	 16.410110	 1.803333	 3.979147	-15.098590	 4.898592	 3.004813	-9.310344	 5.224449	 0.395017	 2.014677
-0.033741	 0.275919	 0.984117	 1.848243	 30.509480	-5.832752	-2.716370	-84.632790	 176.581600	 8.842754	-77.188900	 9.032648	-17.902330	 85.150110	 19.635510	-2.385833	 28.452760	 0.000004	 74.429820	-79.289700	-110.605800	-26.854990	-80.006680	-21.409360	 62.664680	 82.664500	-51.790780	 2.384659	 28.388700	-0.000001	 0.465502	 15.835100	 0.334239	-1.236382	 24.716380	 0.715649	-3.965741	-4.860346	 2.305050	-96.888200	 71.130190	 159.469500	 7.897605	 2.541367	-44.861480	-5.318378	 7.933273	-25.958000	-25.420410	-19.164160	-20.894510	-2.027600	 6.559038	 9.033609	-5.188889	 0.308190	 3.541030	-5.234859	 0.342567	 0.430617	-1.082509	 1.768922	-2.379184	-3.229110	-10.929300	-3.043504	 96.364810	 64.810960	-161.795400	-7.257716	 5.492063	 53.038170	-6.251090	 0.812177	 30.105570	 6.875041	-16.327190	 16.789390	 1.803333	 3.979147	-15.098590	 4.898592	 3.004813	-9.310344	 5.224449	 0.395017	 2.014677
-0.032580	 0.274914	 0.992856	 1.694014	 29.683430	-5.432614	-4.331488	-82.974170	 175.040000	 8.355441	-76.089780	 8.518565	-17.559510	 84.898810	 19.131840	-2.385833	 28.452760	 0.000004	 64.951190	-78.934720	-120.024200	-25.330080	-78.867600	-19.833890	 61.271550	 82.650500	-50.239470	 2.384659	 28.388700	-0.000001	 0.470958	 15.907390	 0.249372	-1.064642	 24.893190	 0.474833	-4.003469	-5.604786	 2.148163	-96.029890	 72.532300	 159.874100	 8.588717	 5.001607	-45.893930	-5.020998	 7.873225	-26.238480	-25.933530	-19.537770	-21.560680	-2.027600	 6.559038	 9.033609	-5.188889	 0.308190	 3.541030	-5.234859	 0.342567	 0.430617	-1.216061	-1.418749	-2.246800	-3.227789	-7.847979	-2.871775	 95.911540	 65.676720	-162.251200	-7.947940	 6.913610	 53.219340	-6.474050	 0.702392	 30.810590	 6.874937	-16.657260	 17.150900	 1.803333	 3.979147	-15.098590	 4.898592	 3.004813	-9.310344	 5.224449	 0.395017	 2.014677
